<svg width="100" height="42" viewBox="0 0 100 42" fill="none" xmlns="http://www.w3.org/2000/svg">
<path d="M23.9572 40.583H21.7767L21.4206 41.6567H20.3309L22.2406 36.2492H23.496L25.4056 41.6567H24.3147L23.9572 40.583ZM23.6467 39.6488L22.8664 37.3081L22.0859 39.6488H23.6467Z" fill="#010000"/>
<path d="M34.2434 41.6567L33.1526 39.7101H32.2585V41.6567H31.2356V36.2492H33.0692C33.3151 36.2217 33.5641 36.2466 33.8001 36.3225C34.0361 36.3984 34.2539 36.5235 34.4399 36.6899C34.6259 36.8562 34.7758 37.0602 34.8803 37.2888C34.9848 37.5175 35.0416 37.7658 35.0469 38.018C35.0535 38.3305 34.9682 38.638 34.8022 38.9008C34.6362 39.1636 34.3969 39.3699 34.1151 39.4931L35.4183 41.656L34.2434 41.6567ZM32.2611 38.8061H33.0719C33.6005 38.8061 33.9969 38.5589 33.9969 38.0187C33.9969 37.5317 33.6481 37.223 33.0719 37.223H32.2611V38.8061Z" fill="#010000"/>
<path d="M44.5228 37.2231H43.2495V41.6574H42.2189V37.2231H40.9456V36.2492H44.5222L44.5228 37.2231Z" fill="#010000"/>
<path d="M60.6799 41.6568L58.7247 39.1456V41.6568H57.7018V36.2493H58.7247V38.8297L60.551 36.2493H61.7259L59.7481 38.9146L61.9227 41.6568H60.6799Z" fill="#010000"/>
<path d="M68.7763 36.2493V41.6568H67.7534V36.2493H68.7763Z" fill="#010000"/>
<path d="M80.1922 38.9537C80.1832 39.4956 80.0174 40.0228 79.7155 40.4689C79.4136 40.9151 78.9892 41.2604 78.4955 41.4614C78.0017 41.6624 77.4607 41.7102 76.9403 41.5989C76.42 41.4875 75.9436 41.2218 75.5709 40.8353C75.1982 40.4488 74.9458 39.9587 74.8454 39.4265C74.7451 38.8942 74.801 38.3436 75.0066 37.8438C75.2122 37.3439 75.5581 36.9172 76.0008 36.6171C76.4435 36.317 76.9633 36.1569 77.4949 36.157C77.8547 36.151 78.2119 36.2195 78.5448 36.3586C78.8778 36.4976 79.1795 36.7042 79.4318 36.9658C79.684 37.2273 79.8815 37.5384 80.0122 37.8801C80.1429 38.2218 80.2042 38.5871 80.1922 38.9537ZM79.1615 38.9537C79.1415 38.6219 79.0268 38.3034 78.8313 38.0373C78.6359 37.7713 78.3683 37.5694 78.0617 37.4565C77.755 37.3436 77.4226 37.3247 77.1055 37.402C76.7884 37.4794 76.5005 37.6496 76.2771 37.8918C76.0538 38.134 75.9048 38.4374 75.8487 38.7649C75.7925 39.0923 75.8316 39.4293 75.9611 39.7343C76.0906 40.0394 76.305 40.2992 76.5775 40.4816C76.8501 40.664 77.1689 40.7612 77.4949 40.761C77.7232 40.7621 77.9494 40.7152 78.1591 40.6233C78.3688 40.5315 78.5578 40.3966 78.7142 40.227C78.8706 40.0575 78.9911 39.8568 79.0681 39.6378C79.1452 39.4187 79.1766 39.1859 79.1615 38.9537Z" fill="#010000"/>
<path d="M89.8732 40.0887C89.8732 40.9314 89.2818 41.7579 87.8955 41.7579C86.9044 41.7579 86.0162 41.341 85.7585 40.4444L86.7497 40.1278C86.829 40.3622 86.9857 40.5611 87.193 40.6908C87.4003 40.8204 87.6455 40.8726 87.8863 40.8384C88.415 40.8384 88.8417 40.6303 88.8417 40.1648C88.8417 39.626 88.2431 39.5856 87.4013 39.3768C86.3335 39.1073 85.9766 38.5583 85.9766 37.8086C85.9766 36.7887 86.7418 36.1555 87.8486 36.1555C88.2481 36.1235 88.6462 36.2329 88.9759 36.465C89.3056 36.6971 89.5469 37.0378 89.6591 37.43L88.6594 37.6772C88.608 37.489 88.4931 37.3253 88.335 37.215C88.1769 37.1048 87.9857 37.0549 87.795 37.0743C87.3556 37.0743 86.9917 37.306 86.9917 37.7392C86.9917 38.3494 87.6662 38.4343 88.1585 38.5474C89.4186 38.8452 89.8732 39.2164 89.8732 40.0887Z" fill="#010000"/>
<path d="M98.7579 41.6568L96.8027 39.1456V41.6568H95.7798V36.2493H96.8027V38.8297L98.629 36.2493H99.8031L97.8255 38.9146L100 41.6568H98.7579Z" fill="#010000"/>
<path d="M0.541941 40.7079C0.709278 40.8884 0.913716 41.029 1.1406 41.1195C1.34941 41.2056 1.57208 41.2513 1.79733 41.2542C1.99588 41.256 2.19297 41.2178 2.37695 41.1417C2.54448 41.0744 2.69198 40.9638 2.80509 40.821C2.91403 40.6784 2.97115 40.5019 2.9669 40.3212C2.97285 40.1398 2.91292 39.9625 2.79848 39.8234C2.67441 39.6807 2.52565 39.5626 2.35969 39.4746C2.17952 39.3754 1.9886 39.2801 1.78684 39.189C1.61945 39.1117 1.45307 39.0304 1.28788 38.9451C1.12853 38.8634 0.978167 38.7647 0.839253 38.6507C0.707279 38.5426 0.597827 38.4086 0.51742 38.2567C0.433241 38.0874 0.391977 37.8994 0.397237 37.7097C0.390148 37.4475 0.46743 37.1902 0.617277 36.9769C0.770157 36.7687 0.975668 36.6069 1.2119 36.5087C1.4749 36.397 1.75765 36.3416 2.04253 36.3457C2.25453 36.3471 2.46564 36.3722 2.67216 36.4211C2.8971 36.4741 3.11537 36.5535 3.32244 36.6575L3.07869 37.1836C2.92284 37.0902 2.75483 37.0194 2.57973 36.9735C2.41571 36.9299 2.24702 36.9072 2.07754 36.906C1.81406 36.8981 1.55395 36.9683 1.32886 37.1081C1.24786 37.1619 1.17902 37.2325 1.12672 37.3154C1.07443 37.3982 1.04 37.4914 1.02558 37.5888C1.01116 37.6863 1.01701 37.7857 1.043 37.8806C1.06898 37.9755 1.11442 38.0637 1.17625 38.1394C1.29362 38.2704 1.43334 38.3787 1.58858 38.4588C1.75818 38.5486 1.93945 38.6384 2.13239 38.7282C2.30463 38.8077 2.47665 38.8919 2.64845 38.9808C2.81565 39.0665 2.97348 39.1699 3.1195 39.2893C3.25944 39.4034 3.37582 39.5446 3.46182 39.7049C3.55284 39.8814 3.59829 40.0787 3.59394 40.2781C3.59787 40.5596 3.51568 40.8352 3.35874 41.0669C3.19561 41.3034 2.97438 41.492 2.71717 41.6138C2.42897 41.7517 2.11372 41.8209 1.79539 41.8159C1.52284 41.8155 1.25223 41.77 0.993958 41.6812C0.720959 41.5874 0.467014 41.4437 0.244629 41.257L0.541941 40.7079Z" fill="#010000"/>
<path d="M1.79013 41.8704C1.5114 41.869 1.23473 41.8217 0.970787 41.7303C0.690938 41.6341 0.4305 41.4869 0.20226 41.2958L0.164673 41.2649L0.529255 40.6107L0.582813 40.6666C0.806442 40.9043 1.09309 41.0704 1.4078 41.1447C1.72251 41.219 2.05174 41.1983 2.35507 41.085C2.51328 41.0209 2.65276 40.9166 2.76014 40.7819C2.86134 40.6499 2.91405 40.486 2.90936 40.3185C2.91481 40.151 2.85987 39.9872 2.75482 39.8583C2.63512 39.7208 2.49172 39.6067 2.33184 39.5216C2.15674 39.4246 1.96521 39.329 1.76367 39.238C1.59452 39.1599 1.42534 39.0777 1.26213 38.9928C1.09911 38.9089 0.945146 38.8078 0.802853 38.6911C0.665485 38.5777 0.551377 38.4378 0.467147 38.2794C0.378453 38.1017 0.334707 37.9042 0.339705 37.7048C0.333197 37.4303 0.414425 37.1611 0.571037 36.9377C0.729966 36.7215 0.943071 36.5529 1.18808 36.4499C1.66459 36.2604 2.18748 36.2286 2.68271 36.359C2.91128 36.4133 3.13298 36.4943 3.34347 36.6002L3.3951 36.625L3.09972 37.261L3.04552 37.2286C2.89458 37.1385 2.73201 37.0706 2.56253 37.0266C2.36341 36.9638 2.1539 36.9427 1.94661 36.965C1.73932 36.9872 1.5386 37.0522 1.35666 37.1559C1.28265 37.2051 1.21962 37.2696 1.17179 37.3453C1.12396 37.4211 1.09232 37.5063 1.07903 37.5953C1.06574 37.6844 1.07111 37.7753 1.09468 37.8621C1.11825 37.9489 1.15951 38.0295 1.21583 38.0989C1.32861 38.2247 1.46303 38.3287 1.61235 38.4054C1.78019 38.4957 1.96183 38.5859 2.15213 38.6748C2.32129 38.7529 2.49585 38.8386 2.67029 38.9282C2.84093 39.016 3.00201 39.1215 3.15118 39.2433C3.29713 39.3621 3.41845 39.5094 3.50802 39.6765C3.60238 39.8618 3.64924 40.0686 3.64417 40.2774C3.64793 40.5709 3.56198 40.8583 3.39832 41.0998C3.23011 41.344 3.00237 41.5393 2.73756 41.6663C2.44093 41.8066 2.11705 41.8764 1.79013 41.8704ZM0.313248 41.2358C0.521522 41.4033 0.756425 41.5332 1.00773 41.6198C1.25993 41.7073 1.52436 41.7528 1.79077 41.7545C2.1002 41.7597 2.40671 41.6935 2.68739 41.5606C2.93537 41.4426 3.14896 41.2608 3.30718 41.0332C3.45696 40.811 3.53571 40.547 3.53254 40.2774C3.53748 40.0882 3.49562 39.9008 3.41091 39.7324C3.32776 39.5789 3.21545 39.4439 3.08052 39.3351C2.9371 39.2181 2.78211 39.1166 2.61802 39.0325C2.4449 38.9436 2.27173 38.8595 2.10389 38.782C1.91095 38.6931 1.72732 38.6014 1.55751 38.5125C1.39603 38.4294 1.25077 38.3172 1.12872 38.1811C1.06142 38.0991 1.01187 38.0033 0.983531 37.9004C0.955192 37.7974 0.94872 37.6896 0.964334 37.5838C0.979948 37.478 1.01738 37.3769 1.07419 37.287C1.13101 37.1971 1.2059 37.1205 1.29391 37.0623C1.52803 36.9163 1.79854 36.8422 2.07292 36.8494C2.24702 36.8499 2.42037 36.8726 2.58898 36.9168C2.74912 36.9585 2.90331 37.0207 3.0481 37.102L3.24184 36.6857C3.05403 36.5955 2.85722 36.5259 2.65496 36.4782C2.18332 36.3518 1.6845 36.3813 1.23035 36.5624C1.00415 36.6569 0.807433 36.8122 0.660892 37.0117C0.518998 37.2151 0.445617 37.4601 0.451983 37.7096C0.446802 37.8895 0.485953 38.0678 0.565713 38.2283C0.64244 38.3737 0.746804 38.5019 0.872866 38.6055C1.00884 38.717 1.15593 38.8136 1.31165 38.8938C1.47354 38.9774 1.64202 39.0588 1.80787 39.1356C2.01205 39.2285 2.20438 39.3249 2.38411 39.4232C2.55601 39.5151 2.71005 39.6382 2.83871 39.7863C2.96276 39.9368 3.02782 40.1288 3.02116 40.3252C3.02579 40.5199 2.96429 40.7101 2.84726 40.864C2.72784 41.014 2.57246 41.1301 2.39604 41.2008C1.98321 41.3617 1.52552 41.355 1.11743 41.182C0.906514 41.098 0.714238 40.9718 0.55184 40.8109L0.313248 41.2358Z" fill="#010000"/>
<path d="M1.79009 41.9412C1.50418 41.9398 1.22038 41.8914 0.949617 41.7978C0.661025 41.699 0.392254 41.5476 0.15657 41.3512L0.0739746 41.2837L0.512764 40.4963L0.630366 40.621C0.844216 40.8485 1.11838 41.0079 1.41938 41.0796C1.72037 41.1514 2.03518 41.1325 2.32583 41.0252C2.47318 40.9658 2.60312 40.8687 2.70316 40.7435C2.79366 40.6235 2.84051 40.4753 2.83544 40.324C2.84143 40.1734 2.79205 40.026 2.69719 39.9104C2.58315 39.7795 2.44662 39.671 2.29421 39.5904C2.12043 39.494 1.93078 39.3997 1.73056 39.3088C1.56009 39.2307 1.39297 39.1485 1.2258 39.0623C1.05839 38.9763 0.900192 38.8727 0.753936 38.7531C0.609122 38.634 0.489196 38.4864 0.401131 38.3193C0.306793 38.132 0.259959 37.9236 0.264977 37.7131C0.258375 37.4238 0.344255 37.14 0.509537 36.9047C0.675522 36.6781 0.898488 36.5018 1.15498 36.3942C1.64483 36.1979 2.18315 36.1646 2.69267 36.2992C2.92712 36.3548 3.1545 36.4375 3.37054 36.5457L3.48217 36.6016L3.12549 37.3696L3.00709 37.2987C2.86153 37.2114 2.70485 37.1452 2.54136 37.102C2.35137 37.0419 2.15142 37.0216 1.95351 37.0422C1.75559 37.0628 1.56367 37.124 1.38954 37.2221C1.32391 37.2659 1.26808 37.3232 1.22563 37.3905C1.18319 37.4577 1.1551 37.5333 1.1432 37.6123C1.1313 37.6913 1.13589 37.772 1.15659 37.8491C1.17729 37.9263 1.21367 37.9981 1.26338 38.06C1.37116 38.1789 1.49896 38.2772 1.64071 38.3502C1.8081 38.44 1.98696 38.5299 2.17726 38.6198C2.35104 38.6999 2.5242 38.7854 2.69864 38.8743C2.87375 38.9643 3.03906 39.0727 3.19212 39.1976C3.34493 39.3221 3.47215 39.4762 3.56622 39.651C3.6659 39.8468 3.71566 40.065 3.71092 40.2855C3.7144 40.5931 3.62429 40.8943 3.45313 41.1477C3.27727 41.4019 3.03956 41.605 2.76333 41.7371C2.45807 41.8789 2.12545 41.9486 1.79009 41.9412ZM0.402421 41.2178C0.592443 41.3631 0.803869 41.4768 1.02882 41.5546C1.55887 41.7477 2.14129 41.7272 2.65702 41.4973C2.89497 41.3848 3.0999 41.2109 3.25165 40.9928C3.39429 40.7829 3.46873 40.5327 3.46443 40.2774C3.46938 40.1001 3.43043 39.9242 3.35134 39.7662C3.27324 39.6206 3.16747 39.4923 3.04016 39.3889C2.90108 39.2751 2.75074 39.1764 2.59153 39.0945C2.42149 39.0047 2.25127 38.9215 2.08079 38.8447C1.88564 38.7549 1.70217 38.6637 1.53037 38.5712C1.36151 38.4842 1.20969 38.3663 1.08238 38.2236C1.00843 38.134 0.953951 38.0294 0.922677 37.9167C0.891402 37.8041 0.883964 37.686 0.900898 37.5702C0.917832 37.4544 0.958773 37.3436 1.02092 37.2451C1.08307 37.1466 1.16508 37.0628 1.26145 36.9991C1.46437 36.8815 1.68862 36.8073 1.9206 36.781C2.15258 36.7547 2.38743 36.7768 2.61072 36.8461C2.75294 36.8833 2.8908 36.936 3.02177 37.0037L3.15389 36.7175C2.98993 36.6432 2.81933 36.5852 2.64444 36.5444C2.18715 36.4216 1.70341 36.4495 1.26274 36.6244C1.04776 36.7142 0.860509 36.8616 0.720866 37.0509C0.585695 37.2413 0.516139 37.4721 0.522765 37.707C0.51775 37.8754 0.554034 38.0423 0.62843 38.1927C0.700463 38.3297 0.798896 38.4503 0.917837 38.5476C1.04966 38.6562 1.19255 38.7502 1.34404 38.8278C1.50791 38.912 1.67447 38.9923 1.83768 39.0684C2.04318 39.162 2.23806 39.2596 2.41779 39.358C2.59725 39.4539 2.7582 39.5822 2.89287 39.7366C3.02656 39.8993 3.09712 40.1064 3.09113 40.3186C3.09529 40.528 3.02847 40.7325 2.90207 40.8978C2.77564 41.0579 2.61066 41.182 2.42311 41.2576C1.99386 41.4254 1.51773 41.419 1.09287 41.24C0.901098 41.1636 0.723974 41.0535 0.569548 40.9147L0.402421 41.2178Z" fill="#010000"/>
<path d="M1.78807 41.9998C1.49584 41.9984 1.20573 41.9488 0.929039 41.853C0.634752 41.7519 0.360998 41.5972 0.12099 41.3963L0 41.2966L0.500897 40.3981L0.672057 40.5786C0.878283 40.7973 1.14225 40.9503 1.43203 41.0192C1.72182 41.0881 2.02496 41.0697 2.30477 40.9666C2.44307 40.911 2.56496 40.82 2.65887 40.7025C2.74227 40.5929 2.78555 40.4572 2.78115 40.3186C2.78678 40.1822 2.74252 40.0484 2.65693 39.9434C2.54759 39.8179 2.41659 39.714 2.27041 39.6368C2.09927 39.5425 1.91099 39.4483 1.71144 39.3574C1.54096 39.2793 1.37044 39.1956 1.20393 39.1101C1.03299 39.0222 0.871541 38.9163 0.722227 38.7942C0.571666 38.6699 0.447028 38.5163 0.355548 38.3422C0.256523 38.146 0.207403 37.9275 0.21278 37.707C0.206132 37.405 0.295849 37.1091 0.468472 36.8636C0.640647 36.6288 0.871898 36.446 1.13779 36.3343C1.63887 36.134 2.18915 36.0996 2.71049 36.2359C2.94906 36.2927 3.18046 36.377 3.40029 36.4872L3.56355 36.568L3.15589 37.4437L2.98264 37.3406C2.84184 37.2561 2.69023 37.1922 2.53207 37.1506C2.34982 37.092 2.15778 37.0718 1.96761 37.0913C1.77745 37.1107 1.59309 37.1694 1.4259 37.2638C1.36736 37.303 1.3175 37.3543 1.27959 37.4144C1.24167 37.4745 1.21663 37.5418 1.20586 37.6124C1.19509 37.683 1.19893 37.7551 1.21716 37.8241C1.23538 37.893 1.2676 37.9573 1.31169 38.0128C1.41476 38.1265 1.53688 38.2206 1.6724 38.2904C1.8442 38.3827 2.02387 38.4715 2.20491 38.555C2.37605 38.6339 2.54719 38.7175 2.72824 38.8118C2.90718 38.9035 3.07628 39.0141 3.23252 39.1418C3.39088 39.2714 3.52244 39.4316 3.61969 39.6133C3.72429 39.8174 3.77655 40.0451 3.77165 40.2754C3.77505 40.5951 3.68133 40.9081 3.50338 41.1713C3.3215 41.4329 3.07612 41.6419 2.79115 41.7777C2.47767 41.9284 2.13462 42.0043 1.78807 41.9998ZM0.148737 41.2684L0.193583 41.306C0.422999 41.4976 0.684422 41.6456 0.965336 41.7426C1.23039 41.8341 1.50825 41.8814 1.78807 41.8827C2.11668 41.8878 2.44213 41.8171 2.74017 41.6759C3.00765 41.5483 3.23789 41.352 3.4082 41.106C3.57248 40.8622 3.65882 40.5726 3.65534 40.2769C3.66035 40.0663 3.61329 39.8577 3.51854 39.6705C3.42813 39.5025 3.306 39.3544 3.15912 39.2347C3.0093 39.1119 2.84722 39.0056 2.67548 38.9175C2.4951 38.8245 2.32584 38.7417 2.15668 38.6636C1.97299 38.5787 1.79135 38.489 1.61691 38.394C1.46909 38.3178 1.33594 38.2152 1.22377 38.091C1.16859 38.0228 1.12809 37.9435 1.10504 37.8583C1.08199 37.7731 1.07694 37.684 1.09004 37.5966C1.10313 37.5092 1.13406 37.4257 1.18102 37.3514C1.22798 37.2771 1.28987 37.2137 1.3625 37.1654C1.54301 37.0628 1.74203 36.9985 1.94761 36.9766C2.1532 36.9547 2.36111 36.9757 2.55853 37.0381C2.72727 37.0825 2.88918 37.1505 3.03958 37.2402L3.10556 37.2786L3.41158 36.6212L3.35077 36.5902C3.13859 36.4838 2.91506 36.4027 2.68468 36.3484C2.18704 36.2172 1.66154 36.2493 1.18279 36.44C0.935884 36.5435 0.721092 36.7132 0.561069 36.9311C0.402973 37.1564 0.320889 37.428 0.327156 37.705C0.322215 37.9062 0.36638 38.1056 0.455889 38.285C0.54057 38.4454 0.655935 38.5869 0.794982 38.7012C0.938332 38.8183 1.09333 38.9197 1.25749 39.0037C1.42202 39.0892 1.58787 39.1714 1.75967 39.2482C1.96187 39.3405 2.15607 39.4362 2.32655 39.5319C2.48538 39.6169 2.62743 39.731 2.7455 39.8687C2.84953 39.9946 2.90371 40.1555 2.89746 40.32C2.9023 40.4848 2.85046 40.6461 2.75082 40.776C2.64488 40.9094 2.50682 41.0127 2.35026 41.0758C2.0492 41.1881 1.72274 41.2085 1.41042 41.1348C1.09809 41.0611 0.81347 40.8964 0.591397 40.6607L0.525256 40.5934L0.148737 41.2684ZM1.80065 41.7398C1.53097 41.7386 1.26311 41.6931 1.0076 41.6052C0.776882 41.5261 0.560106 41.4099 0.365389 41.261L0.324414 41.23L0.553003 40.8197L0.605916 40.8676C0.755397 41.0017 0.926756 41.1081 1.11214 41.1822C1.52338 41.3557 1.98415 41.3621 2.39995 41.2003C2.57846 41.1281 2.73551 41.0099 2.85584 40.8574C2.97396 40.7024 3.0363 40.5108 3.03232 40.3145C3.03814 40.1163 2.97228 39.9229 2.84729 39.771C2.71727 39.6221 2.56185 39.4985 2.38866 39.4059C2.20761 39.3069 2.0133 39.2099 1.81242 39.1183C1.64459 39.0408 1.47809 38.9599 1.31621 38.8757C1.161 38.7962 1.01465 38.7 0.879514 38.5888C0.754565 38.4863 0.651034 38.3595 0.574943 38.2156C0.496262 38.0567 0.457546 37.8803 0.462503 37.7024C0.455063 37.4553 0.527749 37.2125 0.669315 37.0118C0.814762 36.814 1.00995 36.66 1.23426 36.566C1.68623 36.3875 2.18182 36.3583 2.65096 36.4824C2.82966 36.5242 3.00407 36.5833 3.1717 36.6589L3.22526 36.6832L3.04216 37.0773L2.98925 37.0503C2.86286 36.9851 2.73003 36.9341 2.59289 36.898C2.37726 36.8302 2.15017 36.808 1.92583 36.8331C1.7015 36.8581 1.48459 36.9298 1.28846 37.0436C1.19918 37.1027 1.12329 37.1804 1.06568 37.2717C1.00806 37.3629 0.970005 37.4658 0.954205 37.5731C0.938405 37.6804 0.945249 37.7899 0.974047 37.8944C1.00284 37.9989 1.05301 38.096 1.12133 38.1793C1.24386 38.3174 1.39013 38.4315 1.55286 38.5161C1.72003 38.6057 1.90363 38.6972 2.10054 38.7854C2.27498 38.8669 2.44752 38.9512 2.61338 39.0367C2.77627 39.1203 2.93007 39.2211 3.07249 39.3372C3.20538 39.4456 3.31599 39.5797 3.39771 39.7319C3.48161 39.8983 3.5229 40.0837 3.51789 40.2708C3.52267 40.5381 3.44481 40.8002 3.29527 41.0199C3.13846 41.2457 2.92656 41.426 2.68065 41.5432C2.40672 41.6758 2.10715 41.7443 1.80387 41.7433L1.80065 41.7398ZM0.475086 41.2009C0.7844 41.4245 1.14453 41.564 1.5214 41.6065C1.89828 41.6489 2.27948 41.5929 2.62918 41.4435C2.85749 41.335 3.05423 41.1679 3.20009 40.9585C3.33583 40.7582 3.40649 40.5196 3.40223 40.2762C3.40691 40.1085 3.37064 39.9423 3.29656 39.7926C3.2218 39.6541 3.121 39.532 2.9999 39.4334C2.86379 39.322 2.71647 39.2257 2.56046 39.1459C2.39659 39.0611 2.22543 38.9774 2.05231 38.8966C1.85408 38.8057 1.66781 38.7127 1.49866 38.6218C1.32427 38.5313 1.16757 38.4091 1.03616 38.2613C0.956734 38.1654 0.898141 38.0535 0.864511 37.9328C0.830881 37.812 0.822991 37.6854 0.84112 37.5613C0.859249 37.4371 0.903021 37.3183 0.969691 37.2128C1.03636 37.1073 1.12426 37.0173 1.22764 36.9492C1.43706 36.8267 1.66899 36.7495 1.90889 36.7219C2.1488 36.6943 2.39166 36.7171 2.62257 36.789C2.74964 36.8217 2.87338 36.8668 2.99199 36.9237L3.07459 36.7457C2.93046 36.6844 2.78142 36.6359 2.62918 36.6004C2.18354 36.4811 1.7123 36.5079 1.28249 36.6772C1.07733 36.762 0.898425 36.9015 0.764493 37.0812C0.637594 37.2621 0.572758 37.4807 0.580105 37.703C0.575078 37.8617 0.609028 38.019 0.678671 38.161C0.747259 38.2911 0.840986 38.4057 0.954205 38.4978C1.08306 38.6038 1.22252 38.6955 1.37041 38.7713C1.53097 38.8542 1.69611 38.935 1.8613 39.0111C2.06482 39.1034 2.26175 39.2018 2.44544 39.3028C2.63078 39.4022 2.79718 39.5348 2.9365 39.6942C3.07943 39.8675 3.15513 40.0882 3.14928 40.3145C3.15369 40.5374 3.08214 40.755 2.94698 40.9302C2.81484 41.0985 2.64197 41.2287 2.44544 41.3081C2.00249 41.4821 1.51099 41.4757 1.07245 41.2906C0.896273 41.2205 0.73191 41.1229 0.585428 41.001L0.475086 41.2009Z" fill="#010000"/>
<path d="M9.43323 36.4481H10.3411L12.0334 40.1427L13.7216 36.4481H14.609V41.7068H14.0078V37.2362L12.3559 40.8467H11.6951L10.0372 37.2281V41.7049H9.43516L9.43323 36.4481Z" fill="#010000"/>
<path d="M14.6664 41.7641H13.9495V37.4995L12.3926 40.9053H11.6559L11.6401 40.8716L10.0919 37.4928V41.7648H9.375V36.3888H10.3774L10.3926 36.4225L12.0326 40.004L13.6845 36.3888H14.6664V41.7641ZM14.0644 41.6468H14.5514V36.5054H13.7585L12.0332 40.2774L10.3047 36.5054H9.49067V41.6468H9.97769V36.9647L11.7287 40.7881H12.3194L14.0644 36.9715V41.6468Z" fill="#010000"/>
<path d="M14.7358 41.8348H13.8814V37.8169L12.437 40.976H11.6123L10.1587 37.8101V41.8362H9.30432V36.32H10.419L12.0306 39.8396L13.639 36.32H14.7332L14.7358 41.8348ZM14.1339 41.5776H14.4827V36.5761H13.8022L12.0334 40.4473L10.2611 36.5761H9.55937V41.5776H9.90895V36.6502L11.773 40.7186H12.2765L14.1339 36.6555V41.5776Z" fill="#010000"/>
<path d="M14.7932 41.8921H13.8239V38.0796L12.4739 41.0333H11.5767L11.5609 40.9996L10.2195 38.0708V41.8921H9.25012V36.2587H10.4586L10.4739 36.2924L12.0339 39.6983L13.6053 36.2587H14.7945L14.7932 41.8921ZM13.9389 41.7756H14.679V36.376H13.6791L12.0339 39.9757L10.3853 36.376H9.36434V41.7756H10.1045V37.5441L11.6486 40.9167H12.4L13.9382 37.5487L13.9389 41.7756ZM14.5409 41.6349H14.0783V36.9197L12.3147 40.7772H11.7385L11.7227 40.7437L9.96767 36.9136V41.6362H9.50517V36.5168H9.85475V36.3854L9.91476 36.5168H10.3014L10.3166 36.5505L12.0345 40.3071L13.7664 36.5168H14.1346L14.192 36.3901V36.5168H14.5416L14.5409 41.6349ZM14.1913 41.5183H14.4259V36.638H14.1913V41.5183ZM9.6168 41.5183H9.85136V36.638H9.6168V41.5183ZM11.8093 40.6587H12.2394L14.0797 36.634H13.8384L12.0332 40.5847L10.224 36.634H9.96509L11.8093 40.6587Z" fill="#010000"/>
<path d="M5.93433 30.7069H0.0806885V9.98695H5.60927L5.75139 12.1835C6.46331 11.3228 7.3592 10.64 8.37041 10.1874C9.38163 9.73481 10.4812 9.52448 11.5845 9.57269C14.7148 9.57269 16.9302 10.9334 18.2306 13.6547C18.8509 12.4054 19.8013 11.3575 20.9746 10.6295C22.2085 9.90281 23.6152 9.53721 25.0397 9.57269C26.1352 9.51692 27.2281 9.72727 28.2282 10.1866C29.2283 10.6459 30.1069 11.341 30.7917 12.2145C32.1604 13.9757 32.8447 16.4232 32.8447 19.5568V30.7041H26.991V19.5588C27.0887 18.2566 26.6923 16.9658 25.8836 15.953C25.5419 15.5709 25.1252 15.2665 24.6605 15.0595C24.1958 14.8525 23.6934 14.7475 23.1863 14.7515C22.6792 14.7554 22.1787 14.8681 21.7172 15.0824C21.2556 15.2966 20.8435 15.6074 20.5076 15.9947C19.6903 17.0435 19.291 18.368 19.3895 19.7036V30.7055H13.5359V19.5588C13.6336 18.2565 13.2369 16.9656 12.4278 15.953C12.0861 15.5709 11.6693 15.2665 11.2046 15.0595C10.7399 14.8525 10.2378 14.7475 9.73066 14.7515C9.22355 14.7554 8.72291 14.8681 8.26136 15.0824C7.79982 15.2966 7.38769 15.6074 7.05179 15.9947C6.23453 17.0435 5.8352 18.368 5.93368 19.7036L5.93433 30.7069Z" fill="#010000"/>
<path d="M93.3576 2.94234C93.4001 2.22726 93.6818 1.5487 94.1557 1.01973C94.6296 0.490753 95.2671 0.143408 95.9618 0.0356409C96.6565 -0.0721259 97.3665 0.0661957 97.9733 0.427532C98.5801 0.788868 99.0469 1.3514 99.2961 2.02124C99.5453 2.69109 99.5618 3.42767 99.3426 4.10832C99.1234 4.78896 98.6819 5.37246 98.0917 5.76139C97.5016 6.15033 96.7984 6.32118 96.0996 6.24554C95.4008 6.16991 94.7485 5.85241 94.2517 5.34582C93.9501 5.0283 93.7153 4.65133 93.5615 4.23807C93.4078 3.82481 93.3384 3.38388 93.3576 2.94234ZM93.6827 30.7068V9.98685H99.5363V30.7068H93.6827Z" fill="#010000"/>
<path d="M80.4816 30.7068L72.9887 20.4795V30.7068H67.7435V1.00104H72.9887V18.3125L79.5658 9.18865H85.645L78.1122 19.1188L86.9373 30.7047L80.4816 30.7068Z" fill="#010000"/>
<path d="M39.1219 19.9669C39.089 18.0225 39.5774 16.1059 40.5346 14.4238C41.4609 12.816 42.7947 11.4921 44.3961 10.5911C46.116 9.67245 48.0287 9.19257 49.9703 9.19257C51.912 9.19257 53.8247 9.67245 55.5446 10.5911C57.1415 11.4947 58.4716 12.8182 59.3962 14.4238C60.3226 16.1185 60.8088 18.0265 60.8088 19.9665C60.8088 21.9066 60.3226 23.8145 59.3962 25.5092C58.4718 27.1152 57.1417 28.4392 55.5446 29.3428C53.8247 30.2615 51.912 30.7415 49.9703 30.7415C48.0287 30.7415 46.1159 30.2615 44.3961 29.3428C42.7945 28.4418 41.4606 27.1174 40.5346 25.5092C39.5774 23.8274 39.0889 21.911 39.1219 19.9669ZM44.8131 19.9669C44.7668 21.4441 45.2926 22.8807 46.2768 23.966C46.7572 24.4712 47.3323 24.8728 47.9679 25.1471C48.6035 25.4214 49.2867 25.5629 49.977 25.5629C50.6672 25.5629 51.3504 25.4214 51.986 25.1471C52.6217 24.8728 53.1968 24.4712 53.6773 23.966C54.6213 22.8559 55.141 21.436 55.141 19.9669C55.141 18.4977 54.6213 17.0778 53.6773 15.9677C53.1968 15.4625 52.6217 15.0609 51.986 14.7866C51.3504 14.5123 50.6672 14.371 49.977 14.371C49.2867 14.371 48.6035 14.5123 47.9679 14.7866C47.3323 15.0609 46.7572 15.4625 46.2768 15.9677C45.2926 17.053 44.7668 18.4896 44.8131 19.9669Z" fill="#010000"/>
</svg>
